<?xml version="1.0" encoding="UTF-8"?>
<!DOCTYPE svg PUBLIC "-//W3C//DTD SVG 1.1//EN" "http://www.w3.org/Graphics/SVG/1.1/DTD/svg11.dtd">
<svg xmlns="http://www.w3.org/2000/svg" version="1.1" width="1024px" height="1024px" style="shape-rendering:geometricPrecision; text-rendering:geometricPrecision; image-rendering:optimizeQuality; fill-rule:evenodd; clip-rule:evenodd" xmlns:xlink="http://www.w3.org/1999/xlink">
<g><path style="opacity:1" fill="#0a0a07" d="M -0.5,-0.5 C 340.833,-0.5 682.167,-0.5 1023.5,-0.5C 1023.5,340.833 1023.5,682.167 1023.5,1023.5C 682.167,1023.5 340.833,1023.5 -0.5,1023.5C -0.5,682.167 -0.5,340.833 -0.5,-0.5 Z"/></g>
<g><path style="opacity:1" fill="#f1f1ef" d="M 182.5,540.5 C 182.859,538.629 183.859,537.129 185.5,536C 194.261,530.537 202.761,524.704 211,518.5C 210.411,494.495 210.411,470.495 211,446.5C 204.452,440.476 197.285,435.309 189.5,431C 187.147,428.867 186.147,426.2 186.5,423C 190.982,401.906 196.482,381.073 203,360.5C 204.543,358.622 206.376,357.122 208.5,356C 217.833,355 227.167,354 236.5,353C 237.931,352.535 239.097,351.701 240,350.5C 250.668,329.148 263.334,309.148 278,290.5C 278.667,288.833 278.667,287.167 278,285.5C 274.253,278.337 270.253,271.337 266,264.5C 265.294,262.029 265.627,259.695 267,257.5C 280.077,245.25 293.577,233.584 307.5,222.5C 312.242,218.261 317.409,214.594 323,211.5C 332.734,216.951 342.234,222.784 351.5,229C 353.65,230.59 355.983,231.257 358.5,231C 379.554,218.87 401.887,209.87 425.5,204C 427.068,201.696 428.235,199.196 429,196.5C 430.382,188.968 432.382,181.635 435,174.5C 436.543,172.622 438.376,171.122 440.5,170C 446.103,168.876 451.769,168.21 457.5,168C 475.833,167.333 494.167,167.333 512.5,168C 514.333,168.5 515.5,169.667 516,171.5C 518.804,182.921 522.971,193.755 528.5,204C 538.108,205.99 547.775,207.657 557.5,209C 559.513,209.68 560.846,211.013 561.5,213C 559.388,218.668 556.888,224.168 554,229.5C 553.25,230.126 552.416,230.626 551.5,231C 450.656,215.869 367.49,247.036 302,324.5C 249.066,395.503 233.4,474.17 255,560.5C 275.221,626.035 313.721,677.868 370.5,716C 374.126,718.251 375.293,721.418 374,725.5C 370.783,731.437 366.949,736.937 362.5,742C 359.923,743.25 357.257,743.584 354.5,743C 302.485,712.832 263.318,670.665 237,616.5C 235.833,615.333 234.667,614.167 233.5,613C 224.562,611.67 215.562,610.67 206.5,610C 203.966,609.484 201.8,608.317 200,606.5C 192.626,584.882 186.792,562.882 182.5,540.5 Z"/></g>
<g><path style="opacity:1" fill="#0b0b08" d="M 722.5,284.5 C 707.173,271.689 690.839,260.189 673.5,250C 667.047,248.056 663.38,250.389 662.5,257C 662.643,259.151 663.643,260.818 665.5,262C 734.501,308.442 774.001,373.275 784,456.5C 791.49,565.668 750.99,651.834 662.5,715C 600.392,755.321 533.058,767.821 460.5,752.5C 459.062,752.719 457.729,753.219 456.5,754C 452.623,759.585 449.123,765.418 446,771.5C 444.462,776.169 445.962,779.336 450.5,781C 457.662,782.286 464.329,784.786 470.5,788.5C 473.017,798.921 475.851,809.254 479,819.5C 481.674,821.871 484.841,823.037 488.5,823C 507.205,823.919 525.872,823.586 544.5,822C 547,820.833 548.833,819 550,816.5C 552.601,807.363 555.601,798.363 559,789.5C 565.241,786.876 571.741,785.71 578.5,786C 585.532,792.697 592.198,799.697 598.5,807C 600.034,807.923 601.701,808.423 603.5,808.5C 620.473,803.181 637.14,797.014 653.5,790C 655.649,788.848 657.482,787.348 659,785.5C 658.883,775.17 658.883,764.837 659,754.5C 659.465,753.069 660.299,751.903 661.5,751C 683.545,737.63 703.878,721.963 722.5,704C 724.5,703.333 726.5,703.333 728.5,704C 734.5,706.667 740.5,709.333 746.5,712C 749.303,712.755 751.97,712.422 754.5,711C 768.378,694.791 781.878,678.291 795,661.5C 796.373,659.305 796.706,656.971 796,654.5C 789.692,646.188 784.192,637.354 779.5,628C 793.236,599.898 802.736,570.398 808,539.5C 809.319,537.513 811.152,536.346 813.5,536C 819.862,534.773 826.195,533.44 832.5,532C 834.667,531.167 836.167,529.667 837,527.5C 839.864,505.596 841.198,483.596 841,461.5C 840.167,460.667 839.333,459.833 838.5,459C 829.16,455.888 819.994,452.388 811,448.5C 802.105,394.388 779.605,347.055 743.5,306.5C 744.586,306.38 745.253,305.713 745.5,304.5C 744.772,302.845 744.605,301.179 745,299.5C 745.667,302.167 746.333,302.167 747,299.5C 747.216,301.384 747.883,303.051 749,304.5C 749.72,302.888 749.554,301.388 748.5,300C 752.236,299.181 755.569,297.515 758.5,295C 755.972,294.331 755.972,293.498 758.5,292.5C 759.638,299.073 760.472,299.073 761,292.5C 762.088,295.993 763.255,296.159 764.5,293C 763.069,292.535 761.903,291.701 761,290.5C 758.761,291.869 756.927,291.369 755.5,289C 756.167,288.667 756.833,288.333 757.5,288C 755.475,286.806 755.141,285.306 756.5,283.5C 757.833,282.833 759.167,282.167 760.5,281.5C 759.253,279.958 759.253,278.458 760.5,277C 759.833,276.667 759.167,276.333 758.5,276C 759.358,273.658 761.358,271.825 764.5,270.5C 764.906,272.371 765.24,274.205 765.5,276C 764.899,277.605 763.899,278.938 762.5,280C 763.227,281.399 763.727,282.899 764,284.5C 764.669,281.972 765.502,281.972 766.5,284.5C 766.291,285.086 765.957,285.586 765.5,286C 766.766,286.309 767.933,286.809 769,287.5C 769.456,286.256 768.956,285.423 767.5,285C 768.667,283.833 769.833,282.667 771,281.5C 774.27,285.406 775.437,289.406 774.5,293.5C 775.167,293.833 775.833,294.167 776.5,294.5C 774.632,295.913 772.632,297.08 770.5,298C 771.699,300.484 773.532,300.65 776,298.5C 777.016,299.634 777.683,299.301 778,297.5C 777.877,299.45 778.877,301.117 781,302.5C 783.032,300.095 784.532,300.595 785.5,304C 786.5,304.333 787.5,304.667 788.5,305C 787.549,305.718 787.383,306.551 788,307.5C 789.566,308.061 790.899,307.394 792,305.5C 792.456,307.713 791.456,308.713 789,308.5C 787.674,308.245 786.674,307.578 786,306.5C 783.651,308.744 784.151,309.911 787.5,310C 787.33,311.57 786.997,313.403 786.5,315.5C 783.402,315.413 783.068,315.913 785.5,317C 784.672,317.915 783.672,318.581 782.5,319C 784.727,320.835 786.56,320.335 788,317.5C 789.113,318.711 790.28,318.711 791.5,317.5C 792.382,318.76 793.382,319.926 794.5,321C 792.352,323.372 791.018,326.206 790.5,329.5C 791.729,330.281 793.062,330.781 794.5,331C 790.866,331.156 787.533,332.156 784.5,334C 786.891,334.691 786.891,335.691 784.5,337C 785.552,338.119 786.719,338.619 788,338.5C 790.027,333.903 793.527,332.069 798.5,333C 797.833,333.333 797.167,333.667 796.5,334C 800.98,334.293 801.313,335.126 797.5,336.5C 795.172,334.2 793.005,334.2 791,336.5C 790.383,337.449 790.549,338.282 791.5,339C 790.692,339.308 790.025,339.808 789.5,340.5C 791.205,344.745 793.705,344.745 797,340.5C 798.793,342.806 800.96,343.139 803.5,341.5C 805.667,342.792 808,343.625 810.5,344C 812.985,345.223 813.152,346.723 811,348.5C 809.324,347.939 807.991,346.939 807,345.5C 806.56,347.076 805.727,348.41 804.5,349.5C 804.977,350.478 805.643,351.311 806.5,352C 805.184,353.978 805.684,355.478 808,356.5C 807.782,354.413 807.949,352.413 808.5,350.5C 809.192,351.025 809.692,351.692 810,352.5C 812.175,351.745 814.341,350.912 816.5,350C 815.304,349.346 815.304,348.846 816.5,348.5C 817.072,350.078 817.406,351.578 817.5,353C 818.76,354.113 819.927,354.28 821,353.5C 822.255,354.211 823.421,355.044 824.5,356C 823.833,356.333 823.167,356.667 822.5,357C 828.117,358.029 828.45,358.862 823.5,359.5C 823.337,361.857 823.503,364.19 824,366.5C 824.889,365.112 825.389,365.278 825.5,367C 823.639,367.934 821.639,369.434 819.5,371.5C 821.169,371.693 822.836,372.693 824.5,374.5C 823.754,375.736 823.421,377.07 823.5,378.5C 824.873,378.657 826.207,378.49 827.5,378C 829.383,375.031 831.716,374.364 834.5,376C 834,376.5 833.5,377 833,377.5C 831.989,376.663 830.822,376.33 829.5,376.5C 829.36,378.124 830.027,379.29 831.5,380C 830.672,380.915 829.672,381.581 828.5,382C 829.925,383.714 829.592,385.047 827.5,386C 831.361,386.569 831.361,387.402 827.5,388.5C 828.167,388.833 828.833,389.167 829.5,389.5C 828.167,390.833 826.833,390.833 825.5,389.5C 826.965,387.055 826.465,385.055 824,383.5C 823.25,384.126 822.416,384.626 821.5,385C 823.449,387.138 825.116,389.471 826.5,392C 822.852,394.497 823.185,396.831 827.5,399C 825.336,399.433 823.336,398.933 821.5,397.5C 819.151,398.425 819.317,399.425 822,400.5C 822.49,401.793 822.657,403.127 822.5,404.5C 819.762,405.035 817.928,404.035 817,401.5C 815.937,402.438 814.77,403.438 813.5,404.5C 815.36,406.562 817.694,407.895 820.5,408.5C 819.522,409.801 819.855,410.968 821.5,412C 820.81,413.921 820.476,415.755 820.5,417.5C 819.673,415.838 818.507,414.505 817,413.5C 816.217,415.433 816.717,416.933 818.5,418C 818.167,418.333 817.833,418.667 817.5,419C 819.933,421.966 821.433,421.8 822,418.5C 823.303,420.968 824.803,423.301 826.5,425.5C 825.289,426.72 825.289,427.887 826.5,429C 825.159,430.295 823.826,430.795 822.5,430.5C 823.522,431.354 824.355,432.354 825,433.5C 825.667,430.833 826.333,430.833 827,433.5C 828.674,432.324 830.174,430.99 831.5,429.5C 835.386,430.588 835.386,431.421 831.5,432C 832.025,432.692 832.692,433.192 833.5,433.5C 834.935,432.176 835.935,430.51 836.5,428.5C 838.101,427.835 839.601,427.501 841,427.5C 841.311,428.742 840.811,429.742 839.5,430.5C 840.891,430.109 841.891,430.942 842.5,433C 841.5,433.333 840.5,433.667 839.5,434C 840.667,434.5 841.5,435.333 842,436.5C 842.494,440.139 842.994,443.473 843.5,446.5C 842.384,446.402 841.384,446.902 840.5,448C 839.591,449.789 839.424,451.623 840,453.5C 842.648,455.149 844.981,457.149 847,459.5C 848.15,460.424 849.15,460.424 850,459.5C 849.667,463.833 851.333,464.833 855,462.5C 856.856,464.737 856.356,466.571 853.5,468C 854.051,469.398 854.384,470.732 854.5,472C 854,472.5 853.5,473 853,473.5C 849.943,473.285 846.777,472.785 843.5,472C 844.5,472.833 845.5,473.667 846.5,474.5C 844.051,477.187 844.384,479.687 847.5,482C 846.728,483.221 845.728,484.221 844.5,485C 845.448,485.483 846.448,485.649 847.5,485.5C 847.351,486.552 847.517,487.552 848,488.5C 849,487.167 850,485.833 851,484.5C 853.096,485.715 852.929,486.549 850.5,487C 852.403,487.774 854.07,487.44 855.5,486C 853.109,484.691 853.109,483.691 855.5,483C 854.352,481.351 853.019,479.851 851.5,478.5C 849.936,479.186 848.269,479.019 846.5,478C 847.136,476.644 848.303,475.478 850,474.5C 852.091,475.256 853.924,476.423 855.5,478C 854.833,478.333 854.167,478.667 853.5,479C 854.667,479.5 855.5,480.333 856,481.5C 856.333,481.167 856.667,480.833 857,480.5C 857.284,482.886 858.284,483.552 860,482.5C 860.71,483.973 861.876,484.64 863.5,484.5C 863.952,489.472 866.119,490.472 870,487.5C 873.011,489 872.511,489.834 868.5,490C 870.211,491.133 870.711,492.633 870,494.5C 867.952,493.577 866.119,494.077 864.5,496C 867.249,497.346 867.583,498.68 865.5,500C 867.158,500.725 867.658,501.892 867,503.5C 865.315,501.012 863.981,501.345 863,504.5C 862.667,504.167 862.333,503.833 862,503.5C 861.727,505.101 861.227,506.601 860.5,508C 860.833,508.333 861.167,508.667 861.5,509C 860.33,511.185 859.164,513.351 858,515.5C 857.252,513.668 856.252,512.001 855,510.5C 854.092,512.439 852.592,513.439 850.5,513.5C 850.798,510.664 850.131,510.164 848.5,512C 849.634,513.016 849.301,513.683 847.5,514C 848.211,515.255 849.044,516.421 850,517.5C 850.893,516.289 851.726,516.289 852.5,517.5C 850.083,519.494 850.083,521.327 852.5,523C 850.866,523.494 849.199,523.66 847.5,523.5C 847.351,524.552 847.517,525.552 848,526.5C 848.333,526.167 848.667,525.833 849,525.5C 849.903,526.701 851.069,527.535 852.5,528C 850.519,528.605 850.185,529.605 851.5,531C 845.258,533.627 844.925,536.794 850.5,540.5C 851.425,539.359 852.259,539.359 853,540.5C 854.487,539.747 854.654,538.914 853.5,538C 855.061,537.682 856.228,536.849 857,535.5C 857.374,536.416 857.874,537.25 858.5,538C 854.513,540.422 854.846,542.422 859.5,544C 852.233,544.814 851.567,545.814 857.5,547C 856.833,547.333 856.167,547.667 855.5,548C 857.239,551.657 856.573,552.657 853.5,551C 854.451,550.282 854.617,549.449 854,548.5C 852.653,550.193 852.153,551.86 852.5,553.5C 851.186,552.687 850.019,551.687 849,550.5C 848.259,551.641 847.425,551.641 846.5,550.5C 846.264,551.247 845.93,552.08 845.5,553C 846.833,553.667 847.833,554.667 848.5,556C 847.216,556.684 846.049,556.517 845,555.5C 844.167,556.333 843.333,557.167 842.5,558C 844.349,559.093 846.016,560.426 847.5,562C 847.167,562.333 846.833,562.667 846.5,563C 848.167,564 849.833,565 851.5,566C 850.151,566.772 849.318,567.939 849,569.5C 848.147,567.875 847.147,567.542 846,568.5C 845.667,566.5 845.333,564.5 845,562.5C 844.612,561.572 843.945,560.905 843,560.5C 841.163,562.613 838.996,564.446 836.5,566C 835.551,566.617 834.718,566.451 834,565.5C 832.354,567.055 832.021,568.721 833,570.5C 831.853,571.458 830.853,571.125 830,569.5C 826.802,572.524 825.802,576.191 827,580.5C 827.333,580.167 827.667,579.833 828,579.5C 831.645,581.337 831.978,583.337 829,585.5C 828.667,584.833 828.333,584.167 828,583.5C 827.333,584.833 826.667,584.833 826,583.5C 825.517,584.448 825.351,585.448 825.5,586.5C 821.211,586.744 820.544,588.411 823.5,591.5C 822.106,592.687 822.273,593.354 824,593.5C 825.565,592.048 826.898,590.381 828,588.5C 829.612,588.952 830.612,590.285 831,592.5C 831.743,590.559 831.576,588.726 830.5,587C 832.347,583.876 834.013,583.876 835.5,587C 834.285,589.096 833.451,588.929 833,586.5C 832.81,590.188 831.976,593.688 830.5,597C 831.167,597.333 831.833,597.667 832.5,598C 831.216,598.684 830.049,598.517 829,597.5C 828.833,597.833 828.667,598.167 828.5,598.5C 832.311,599.738 832.311,600.404 828.5,600.5C 828.657,601.873 828.49,603.207 828,604.5C 827.667,604.167 827.333,603.833 827,603.5C 822.335,604.739 822.502,605.572 827.5,606C 826.55,608.91 824.55,610.077 821.5,609.5C 821.149,611.869 820.982,614.203 821,616.5C 822.333,614.5 823.667,612.5 825,610.5C 825.227,613.06 826.56,614.726 829,615.5C 830.52,613.165 832.02,613.332 833.5,616C 832.207,616.49 830.873,616.657 829.5,616.5C 829.579,617.93 829.246,619.264 828.5,620.5C 832.183,621.545 832.183,622.879 828.5,624.5C 827.833,624.333 827.167,624.167 826.5,624C 827.696,623.346 827.696,622.846 826.5,622.5C 824.603,627.011 822.436,627.344 820,623.5C 819.676,625.569 818.842,625.902 817.5,624.5C 816.92,626.637 815.92,628.47 814.5,630C 817.544,630.359 817.878,631.026 815.5,632C 815.833,632.333 816.167,632.667 816.5,633C 815.262,632.923 814.262,633.089 813.5,633.5C 814.025,634.192 814.692,634.692 815.5,635C 813.888,635.72 812.388,635.554 811,634.5C 809.513,635.253 809.346,636.086 810.5,637C 809.241,637.923 807.908,638.757 806.5,639.5C 808.585,640.541 810.252,642.041 811.5,644C 808.833,644.667 808.833,645.333 811.5,646C 810.328,646.419 809.328,647.085 808.5,648C 809.833,648.667 809.833,649.333 808.5,650C 809.672,650.419 810.672,651.085 811.5,652C 810.551,652.617 809.718,652.451 809,651.5C 805.701,654.963 805.201,658.63 807.5,662.5C 806.91,663.799 805.91,664.632 804.5,665C 805.167,665.667 805.833,666.333 806.5,667C 804.405,665.85 802.238,665.35 800,665.5C 799.689,666.742 800.189,667.742 801.5,668.5C 800.384,668.402 799.384,668.902 798.5,670C 798.667,670.5 798.833,671 799,671.5C 800.113,670.289 801.28,670.289 802.5,671.5C 802.833,670.833 803.167,670.167 803.5,669.5C 805.195,670.292 806.862,669.958 808.5,668.5C 807.41,667.391 807.41,666.391 808.5,665.5C 809.354,666.948 810.354,668.281 811.5,669.5C 809.833,670.667 808.167,671.833 806.5,673C 807.328,673.915 808.328,674.581 809.5,675C 807.559,675.743 805.726,675.576 804,674.5C 803.405,675.899 803.572,677.232 804.5,678.5C 803.471,678.296 802.471,678.796 801.5,680C 802.649,681.744 803.983,681.911 805.5,680.5C 806.632,682.94 805.965,684.94 803.5,686.5C 805.802,687.999 805.469,689.332 802.5,690.5C 801.188,689.54 799.854,689.706 798.5,691C 800.767,692.081 800.934,693.581 799,695.5C 795.616,691.517 794.782,692.184 796.5,697.5C 795.675,698.386 794.675,698.719 793.5,698.5C 793.966,700.201 793.966,701.701 793.5,703C 794.833,703.333 796.167,703.667 797.5,704C 796.366,705.016 796.699,705.683 798.5,706C 797.549,706.718 797.383,707.551 798,708.5C 798.718,707.549 799.551,707.383 800.5,708C 800.018,709.008 799.852,710.175 800,711.5C 797.891,708.72 796.058,708.887 794.5,712C 797.993,713.088 798.159,714.255 795,715.5C 793.442,714.655 792.442,715.321 792,717.5C 790.588,714.947 789.588,712.614 789,710.5C 788.5,710.667 788,710.833 787.5,711C 788.451,711.718 788.617,712.551 788,713.5C 786.249,708.851 784.082,709.017 781.5,714C 783.777,715.613 785.277,717.78 786,720.5C 786.333,719.833 786.667,719.167 787,718.5C 791.118,722.083 791.618,726.249 788.5,731C 789.956,731.423 790.456,732.256 790,733.5C 788.284,732.448 787.284,733.114 787,735.5C 786.581,734.328 785.915,733.328 785,732.5C 783.542,733.747 782.042,733.747 780.5,732.5C 779.606,728.454 777.773,727.787 775,730.5C 774.148,736.127 771.648,736.627 767.5,732C 767.667,731.5 767.833,731 768,730.5C 768.535,732.271 769.369,732.604 770.5,731.5C 769.522,730.199 769.855,729.032 771.5,728C 768.826,723.697 767.492,723.863 767.5,728.5C 764.956,728.896 762.789,728.229 761,726.5C 759.245,727.67 758.245,729.337 758,731.5C 756.238,733.463 754.571,734.796 753,735.5C 752.512,732.781 751.012,730.781 748.5,729.5C 747.5,730 746.5,730.5 745.5,731C 746.696,731.654 746.696,732.154 745.5,732.5C 744.796,730.899 743.629,729.565 742,728.5C 741.549,730.929 740.715,731.096 739.5,729C 740.34,727.334 739.84,727.167 738,728.5C 737.781,727.062 737.281,725.729 736.5,724.5C 736.524,726.284 736.024,728.284 735,730.5C 734.577,729.044 733.744,728.544 732.5,729C 732.958,731.831 734.292,734.164 736.5,736C 734.62,735.49 732.787,735.657 731,736.5C 729.887,735.24 729.72,734.073 730.5,733C 728.693,730.724 727.193,730.557 726,732.5C 725.396,730.314 724.23,730.148 722.5,732C 723.167,732.667 723.833,733.333 724.5,734C 721.523,734.481 718.857,735.648 716.5,737.5C 716.938,738.506 717.604,738.506 718.5,737.5C 719.583,738.365 719.749,739.365 719,740.5C 718.667,740.167 718.333,739.833 718,739.5C 717.692,740.308 717.192,740.975 716.5,741.5C 716.167,740.833 715.833,740.167 715.5,739.5C 713.519,740.105 713.185,741.105 714.5,742.5C 713.109,742.109 712.109,742.942 711.5,745C 712.337,746.011 712.67,747.178 712.5,748.5C 708.182,748.353 705.015,746.353 703,742.5C 702.5,743.667 701.667,744.5 700.5,745C 700.381,746.281 700.881,747.448 702,748.5C 704.882,746.225 705.215,746.891 703,750.5C 702.167,751.5 701.333,752.5 700.5,753.5C 698.899,754.165 697.399,754.499 696,754.5C 694.903,752.947 693.57,751.614 692,750.5C 691.667,748.5 691.333,746.5 691,744.5C 689.796,745.471 689.296,746.471 689.5,747.5C 688.749,746.624 688.249,745.624 688,744.5C 686.411,746.911 686.911,749.078 689.5,751C 688.333,751.5 687.5,752.333 687,753.5C 685.16,752.167 684.66,752.334 685.5,754C 684.672,754.915 683.672,755.581 682.5,756C 686.17,756.279 689.837,756.112 693.5,755.5C 693.649,756.552 693.483,757.552 693,758.5C 691.757,757.664 690.59,757.997 689.5,759.5C 689.746,760.773 689.746,761.94 689.5,763C 688.262,762.923 687.262,763.089 686.5,763.5C 690.361,764.598 690.361,765.431 686.5,766C 687.5,768.333 688.5,770.667 689.5,773C 688.687,774.314 687.687,775.481 686.5,776.5C 687.035,778.271 687.869,778.604 689,777.5C 688.675,779.553 689.009,781.553 690,783.5C 688.026,783.374 685.859,783.208 683.5,783C 682.874,782.25 682.374,781.416 682,780.5C 681.333,781.833 680.667,781.833 680,780.5C 679.544,781.744 680.044,782.577 681.5,783C 679.888,783.72 678.388,783.554 677,782.5C 677.013,786.124 675.68,789.124 673,791.5C 672.667,791.167 672.333,790.833 672,790.5C 670.632,791.993 670.465,793.493 671.5,795C 670.833,795.667 670.167,796.333 669.5,797C 666.523,797.735 663.689,797.569 661,796.5C 658.943,799.764 656.61,800.43 654,798.5C 653.508,799.549 653.674,800.549 654.5,801.5C 653.461,804.43 652.128,806.43 650.5,807.5C 650.667,808.167 650.833,808.833 651,809.5C 651.654,808.304 652.154,808.304 652.5,809.5C 651.624,810.251 650.624,810.751 649.5,811C 649.955,813.312 650.955,815.312 652.5,817C 651.228,818.307 650.228,819.807 649.5,821.5C 648.494,821.062 648.494,820.396 649.5,819.5C 648.372,818.738 647.205,818.071 646,817.5C 645.713,819.983 645.046,822.65 644,825.5C 642.513,824.747 642.346,823.914 643.5,823C 642.833,822.667 642.167,822.333 641.5,822C 643.394,820.921 643.727,819.587 642.5,818C 643.667,816.833 644.833,815.667 646,814.5C 646.604,816.686 647.77,816.852 649.5,815C 647.776,814.552 647.109,813.718 647.5,812.5C 646.252,813.04 645.085,813.707 644,814.5C 643.333,811.833 642.667,811.833 642,814.5C 640.927,813.72 639.76,813.887 638.5,815C 639.022,815.561 639.355,816.228 639.5,817C 638.465,818.274 637.298,819.44 636,820.5C 634.981,819.313 633.814,818.313 632.5,817.5C 631.808,818.025 631.308,818.692 631,819.5C 630.667,819.167 630.333,818.833 630,818.5C 629.689,815.922 630.522,813.755 632.5,812C 631.069,811.535 629.903,810.701 629,809.5C 629.453,811.454 629.62,813.287 629.5,815C 628.552,815.483 627.552,815.649 626.5,815.5C 626.911,812.447 627.577,809.447 628.5,806.5C 627.372,805.738 626.205,805.071 625,804.5C 622.962,807.075 621.128,809.241 619.5,811C 621.045,812.688 622.045,814.688 622.5,817C 621.552,817.483 620.552,817.649 619.5,817.5C 619.5,816.5 619.5,815.5 619.5,814.5C 618.5,814.5 617.5,814.5 616.5,814.5C 616.048,819.82 618.381,823.486 623.5,825.5C 624.429,824.311 624.762,822.978 624.5,821.5C 622.294,820.416 623.627,820.249 628.5,821C 627.692,821.308 627.025,821.808 626.5,822.5C 627.641,823.425 627.641,824.259 626.5,825C 627.5,825.333 628.5,825.667 629.5,826C 626.443,825.893 624.109,827.06 622.5,829.5C 623.609,831.214 622.942,831.881 620.5,831.5C 620.271,829.567 619.438,827.9 618,826.5C 617.28,828.112 617.446,829.612 618.5,831C 616,831.885 613.667,833.052 611.5,834.5C 608.422,832.98 605.422,831.313 602.5,829.5C 600.609,831.016 598.609,832.35 596.5,833.5C 595.749,832.624 595.249,831.624 595,830.5C 594.25,831.126 593.416,831.626 592.5,832C 594.81,834.828 594.644,837.662 592,840.5C 589.885,838.243 587.552,837.243 585,837.5C 582.541,837.89 580.874,839.224 580,841.5C 579.667,841.167 579.333,840.833 579,840.5C 578.207,844.295 576.207,847.295 573,849.5C 571.865,849.273 570.698,848.94 569.5,848.5C 575.276,844.496 574.776,843.162 568,844.5C 567.517,845.448 567.351,846.448 567.5,847.5C 562.533,847.416 562.2,846.082 566.5,843.5C 565.5,842.833 564.5,842.167 563.5,841.5C 564.806,840.088 565.64,838.421 566,836.5C 567.087,838.932 567.587,838.598 567.5,835.5C 568.822,835.33 569.989,835.663 571,836.5C 571.667,833.833 572.333,833.833 573,836.5C 574.187,834.956 574.52,833.289 574,831.5C 573.667,832.167 573.333,832.833 573,833.5C 571.615,832.449 570.615,831.116 570,829.5C 569.138,831.087 568.471,832.754 568,834.5C 567.692,833.692 567.192,833.025 566.5,832.5C 564.908,834.562 563.075,834.895 561,833.5C 560.383,834.449 560.549,835.282 561.5,836C 560.551,836.617 559.718,836.451 559,835.5C 556.174,836.917 556.007,838.417 558.5,840C 556.466,840.627 554.133,841.46 551.5,842.5C 551.709,843.086 552.043,843.586 552.5,844C 551.333,844.5 550.5,845.333 550,846.5C 549.005,844.839 547.672,843.505 546,842.5C 541.106,845.313 540.606,844.813 544.5,841C 541.639,839.754 538.639,838.754 535.5,838C 535.833,837.667 536.167,837.333 536.5,837C 535.887,834.853 535.221,832.686 534.5,830.5C 533.59,832.655 532.423,834.655 531,836.5C 530.884,834.345 531.217,832.345 532,830.5C 530.667,833.167 529.333,833.167 528,830.5C 526.902,831.967 525.402,832.801 523.5,833C 525.991,833.626 525.991,834.459 523.5,835.5C 522.311,836.429 520.978,836.762 519.5,836.5C 519.815,834.774 519.981,833.107 520,831.5C 519.667,831.833 519.333,832.167 519,832.5C 515.878,831.114 512.711,829.78 509.5,828.5C 508.483,831.028 507.316,831.028 506,828.5C 505.535,829.931 504.701,831.097 503.5,832C 504.428,832.388 505.095,833.055 505.5,834C 504.616,835.098 503.616,835.598 502.5,835.5C 505.111,837.798 504.611,839.465 501,840.5C 498.922,838.319 499.089,836.319 501.5,834.5C 500.282,833.197 500.615,832.197 502.5,831.5C 501.753,831.264 500.92,830.93 500,830.5C 498.837,832.285 498.17,834.285 498,836.5C 495.974,837.858 493.807,838.691 491.5,839C 494.279,839.149 494.779,839.983 493,841.5C 491.333,840.5 489.667,839.5 488,838.5C 487.667,839.167 487.333,839.833 487,840.5C 484.24,837.244 480.907,836.244 477,837.5C 475.635,837.156 474.468,836.489 473.5,835.5C 473.167,836.167 472.833,836.833 472.5,837.5C 469.477,834.966 467.144,835.299 465.5,838.5C 464.045,836.056 462.379,835.556 460.5,837C 462.167,838.333 463.833,839.667 465.5,841C 463.579,841.36 461.912,842.194 460.5,843.5C 458.868,842.703 457.368,841.703 456,840.5C 454.588,841.923 453.421,841.756 452.5,840C 453.5,839.667 454.5,839.333 455.5,839C 454.755,836.429 454.421,833.929 454.5,831.5C 456.461,830.152 456.628,828.819 455,827.5C 454.683,829.301 454.016,829.634 453,828.5C 452.5,827.5 452,826.5 451.5,825.5C 453.505,820.894 452.172,817.561 447.5,815.5C 448.826,815.795 450.159,815.295 451.5,814C 447.998,813.344 447.998,812.011 451.5,810C 450.833,809.667 450.167,809.333 449.5,809C 452.343,805.614 453.009,801.781 451.5,797.5C 450.197,798.718 449.197,798.385 448.5,796.5C 446.902,797.485 445.235,797.651 443.5,797C 445.592,796.047 445.925,794.714 444.5,793C 445.167,792.667 445.833,792.333 446.5,792C 445.069,791.535 443.903,790.701 443,789.5C 442.915,791.085 442.749,792.418 442.5,793.5C 439.848,791.408 439.014,788.742 440,785.5C 440.249,786.624 440.749,787.624 441.5,788.5C 442.696,788.154 442.696,787.654 441.5,787C 442.448,786.517 443.448,786.351 444.5,786.5C 444.433,784.599 444.767,782.766 445.5,781C 444.244,779.155 443.244,777.155 442.5,775C 443.484,773.343 444.484,771.677 445.5,770C 444.167,769 444.167,768 445.5,767C 444.975,766.308 444.308,765.808 443.5,765.5C 442.759,767.688 442.426,769.688 442.5,771.5C 441.186,770.687 440.019,769.687 439,768.5C 438.16,771.464 437.16,771.797 436,769.5C 433.782,771.619 431.282,771.952 428.5,770.5C 429.376,769.749 430.376,769.249 431.5,769C 429.277,768.348 428.11,766.848 428,764.5C 427.075,765.047 426.242,765.713 425.5,766.5C 426.326,767.451 426.492,768.451 426,769.5C 424.956,768.377 424.29,767.044 424,765.5C 422.951,766.517 421.784,766.684 420.5,766C 420.694,764.097 420.694,762.263 420.5,760.5C 420.938,759.494 421.604,759.494 422.5,760.5C 423.521,759.998 423.688,759.332 423,758.5C 421.303,756.075 419.303,754.742 417,754.5C 415.482,754.057 414.315,754.724 413.5,756.5C 412.094,755.332 410.928,755.665 410,757.5C 409.342,755.892 409.842,754.725 411.5,754C 409.114,753.716 408.448,752.716 409.5,751C 409,750.5 408.5,750 408,749.5C 407.667,750.833 407.333,752.167 407,753.5C 404.205,752.217 401.372,752.217 398.5,753.5C 400.385,754.197 400.718,755.197 399.5,756.5C 400.376,757.251 401.376,757.751 402.5,758C 401.328,758.419 400.328,759.085 399.5,760C 401.095,759.383 402.428,759.716 403.5,761C 402.051,762.117 400.384,762.784 398.5,763C 398.5,764.667 398.5,766.333 398.5,768C 402.19,768.424 402.357,769.258 399,770.5C 397.989,769.663 396.822,769.33 395.5,769.5C 395.66,767.801 395.494,766.134 395,764.5C 392.538,766.474 390.872,769.474 390,773.5C 389.5,773 389,772.5 388.5,772C 389.576,770.274 389.743,768.441 389,766.5C 388.667,767.167 388.333,767.833 388,768.5C 386.719,768.619 385.552,768.119 384.5,767C 385.167,766.667 385.833,766.333 386.5,766C 385.167,765.333 385.167,764.667 386.5,764C 384.953,763.667 383.62,764.167 382.5,765.5C 381.459,763.009 380.626,763.009 380,765.5C 379.333,764.167 378.667,762.833 378,761.5C 377.667,761.833 377.333,762.167 377,762.5C 375.667,759.833 374.333,759.833 373,762.5C 371.176,761.251 371.343,760.085 373.5,759C 371.494,758.151 370.828,756.985 371.5,755.5C 372.192,756.025 372.692,756.692 373,757.5C 374.204,756.529 374.704,755.529 374.5,754.5C 375.472,756.636 377.139,757.803 379.5,758C 378.304,758.654 378.304,759.154 379.5,759.5C 380.5,759 381.5,758.5 382.5,758C 379.833,756.333 379.833,754.667 382.5,753C 380.436,752.347 378.769,751.18 377.5,749.5C 375.939,750.347 374.439,750.014 373,748.5C 372.027,750.392 371.36,752.392 371,754.5C 370.77,750.517 369.437,749.851 367,752.5C 366.667,752.167 366.333,751.833 366,751.5C 367.249,757.816 364.749,761.816 358.5,763.5C 358.785,765.288 358.452,766.955 357.5,768.5C 356.41,767.609 356.41,766.609 357.5,765.5C 355.82,764.231 354.653,762.564 354,760.5C 352.684,761.974 351.684,763.641 351,765.5C 349.635,761.777 347.968,761.777 346,765.5C 345.395,763.519 344.395,763.185 343,764.5C 343.57,762.307 343.236,760.307 342,758.5C 340.32,759.603 338.82,759.27 337.5,757.5C 337.64,755.744 337.14,754.078 336,752.5C 334.83,755.67 332.997,756.17 330.5,754C 331.833,753 331.833,752 330.5,751C 332.686,750.396 332.852,749.23 331,747.5C 330.581,748.672 329.915,749.672 329,750.5C 327.887,749.289 326.72,749.289 325.5,750.5C 324.667,749.5 323.833,748.5 323,747.5C 322.667,748.167 322.333,748.833 322,749.5C 321.966,747.82 321.799,746.32 321.5,745C 322.996,744.493 324.163,744.993 325,746.5C 328.377,745.665 330.543,744.165 331.5,742C 330.484,741.481 329.818,740.647 329.5,739.5C 329.781,737.114 329.781,734.781 329.5,732.5C 332.167,731.5 332.167,730.5 329.5,729.5C 328.833,730.833 328.167,732.167 327.5,733.5C 324.381,730.73 321.881,731.396 320,735.5C 318.249,734.826 316.583,734.493 315,734.5C 312.631,735.927 312.131,737.761 313.5,740C 310.508,742.362 307.675,744.196 305,745.5C 304.544,744.256 305.044,743.423 306.5,743C 304.248,739.668 302.914,740.168 302.5,744.5C 302.833,745.167 303.167,745.833 303.5,746.5C 302.066,747.23 300.9,748.23 300,749.5C 298.859,747.391 297.359,745.558 295.5,744C 295.665,742.883 295.998,741.716 296.5,740.5C 295.902,739.205 295.402,737.872 295,736.5C 294.667,736.833 294.333,737.167 294,737.5C 291.595,736.726 289.095,736.226 286.5,736C 287.337,734.989 287.67,733.822 287.5,732.5C 290.43,733.787 292.763,733.287 294.5,731C 290.557,728.934 287.723,726.434 286,723.5C 283.435,723.843 282.601,725.01 283.5,727C 282.382,728.074 281.382,729.24 280.5,730.5C 279.522,730.023 278.689,729.357 278,728.5C 277.282,729.451 276.449,729.617 275.5,729C 280.061,724.45 279.061,722.117 272.5,722C 274.384,721.784 276.051,721.117 277.5,720C 276.577,717.959 276.244,715.792 276.5,713.5C 277.552,713.649 278.552,713.483 279.5,713C 278.069,712.535 276.903,711.701 276,710.5C 275.692,711.308 275.192,711.975 274.5,712.5C 273.138,710.988 272.804,709.488 273.5,708C 270.5,704.667 267.5,704.667 264.5,708C 265.784,708.684 266.951,708.517 268,707.5C 268.122,709.169 267.788,710.835 267,712.5C 266.259,713.641 265.425,713.641 264.5,712.5C 263.304,712.846 263.304,713.346 264.5,714C 260.639,714.569 260.639,715.402 264.5,716.5C 263.061,718.553 261.061,719.553 258.5,719.5C 258.5,718.167 258.5,716.833 258.5,715.5C 255.393,715.826 253.06,714.659 251.5,712C 256.181,710.95 256.848,708.617 253.5,705C 252.256,704.544 251.423,705.044 251,706.5C 250.517,705.552 250.351,704.552 250.5,703.5C 253.721,702.319 257.055,701.319 260.5,700.5C 257.866,697.65 258.366,696.65 262,697.5C 263.895,695.818 266.062,695.318 268.5,696C 267.833,696.333 267.167,696.667 266.5,697C 268.044,698.187 269.711,698.52 271.5,698C 268.833,697.333 268.833,696.667 271.5,696C 271.034,694.701 271.034,693.201 271.5,691.5C 270.448,691.649 269.448,691.483 268.5,691C 268.833,690 269.167,689 269.5,688C 267.645,687.578 265.811,687.078 264,686.5C 261.504,687.006 259.17,687.006 257,686.5C 256.333,687.167 255.667,687.833 255,688.5C 254.552,686.776 253.718,686.109 252.5,686.5C 252.709,685.914 253.043,685.414 253.5,685C 250.244,681.367 248.244,681.867 247.5,686.5C 243.301,686.473 242.467,684.807 245,681.5C 245.333,681.833 245.667,682.167 246,682.5C 246.318,680.939 247.151,679.772 248.5,679C 246.048,675.463 244.048,675.296 242.5,678.5C 241.684,676.713 240.684,675.046 239.5,673.5C 238.549,674.326 237.549,674.492 236.5,674C 236.833,673.667 237.167,673.333 237.5,673C 233.815,672.259 233.149,670.759 235.5,668.5C 230.151,666.925 229.651,664.925 234,662.5C 235.688,663.325 235.855,664.325 234.5,665.5C 235.376,666.251 236.376,666.751 237.5,667C 236.304,667.654 236.304,668.154 237.5,668.5C 236.552,666.033 236.552,663.366 237.5,660.5C 236.022,660.762 234.689,660.429 233.5,659.5C 234.167,659.167 234.833,658.833 235.5,658.5C 234.624,657.749 233.624,657.249 232.5,657C 234.255,656.28 235.089,655.113 235,653.5C 234.333,654.833 233.667,654.833 233,653.5C 231.614,657.923 229.281,658.589 226,655.5C 225.383,654.551 225.549,653.718 226.5,653C 225.5,652.667 224.5,652.333 223.5,652C 224.654,651.086 224.487,650.253 223,649.5C 221.705,650.841 221.205,652.174 221.5,653.5C 220.692,651.577 220.192,649.577 220,647.5C 218.644,646.62 217.144,646.286 215.5,646.5C 215.207,644.311 214.707,642.311 214,640.5C 214.667,641.833 215.333,641.833 216,640.5C 217,642.151 218.167,643.818 219.5,645.5C 220.672,645.081 221.672,644.415 222.5,643.5C 220.016,642.844 219.183,640.844 220,637.5C 222.634,636.216 224.8,636.882 226.5,639.5C 227.386,638.675 227.719,637.675 227.5,636.5C 226.448,636.649 225.448,636.483 224.5,636C 225.747,634.506 225.747,633.006 224.5,631.5C 223.357,635.125 222.024,635.291 220.5,632C 221.5,631 222.5,630 223.5,629C 221.98,627.77 221.147,626.603 221,625.5C 219.584,626.573 218.25,626.573 217,625.5C 216.529,627.246 215.862,628.913 215,630.5C 214.667,629.5 214.333,628.5 214,627.5C 213.333,628.833 212.667,628.833 212,627.5C 210.221,629.017 210.721,629.851 213.5,630C 212.376,630.249 211.376,630.749 210.5,631.5C 212.374,631.474 214.04,631.807 215.5,632.5C 214.566,635.965 213.066,636.298 211,633.5C 209.336,635.805 207.836,635.472 206.5,632.5C 208.831,630.2 208.664,628.534 206,627.5C 205.151,630.521 203.651,631.021 201.5,629C 203.709,628.043 203.543,626.876 201,625.5C 200.692,626.308 200.192,626.975 199.5,627.5C 198.138,625.988 197.804,624.488 198.5,623C 197.551,622.383 196.718,622.549 196,623.5C 195.667,622.833 195.333,622.167 195,621.5C 194.228,622.849 193.061,623.682 191.5,624C 192.711,624.893 192.711,625.726 191.5,626.5C 190.416,625.335 189.583,624.002 189,622.5C 186.916,625.033 184.916,625.033 183,622.5C 182.667,622.833 182.333,623.167 182,623.5C 181.196,621.117 180.029,618.95 178.5,617C 180.447,616.009 182.447,615.675 184.5,616C 182.393,617.264 181.393,619.097 181.5,621.5C 182.978,621.762 184.311,621.429 185.5,620.5C 186.676,617.904 188.01,615.404 189.5,613C 188.929,611.795 188.262,610.628 187.5,609.5C 187.251,610.582 187.085,611.915 187,613.5C 186.586,613.957 186.086,614.291 185.5,614.5C 184.97,613.244 184.97,611.744 185.5,610C 183.729,607.887 182.229,608.053 181,610.5C 179.649,608.981 178.149,607.648 176.5,606.5C 175.833,607.167 175.167,607.833 174.5,608.5C 174.331,607.603 173.998,606.603 173.5,605.5C 172.268,604.855 170.935,604.689 169.5,605C 170.667,601.833 172.167,601.667 174,604.5C 175.016,603.366 175.683,603.699 176,605.5C 176.54,603.865 176.04,602.532 174.5,601.5C 174.709,600.914 175.043,600.414 175.5,600C 173.629,597.954 171.629,597.121 169.5,597.5C 170.025,596.808 170.692,596.308 171.5,596C 169.3,593.766 167.467,591.266 166,588.5C 166.277,585.869 166.11,583.369 165.5,581C 167.307,579.398 169.307,578.064 171.5,577C 169.714,575.707 168.047,575.207 166.5,575.5C 168.059,573.869 170.059,573.036 172.5,573C 169.066,571.99 168.233,570.157 170,567.5C 170.317,569.301 170.984,569.634 172,568.5C 172.036,566.059 172.869,564.059 174.5,562.5C 175.293,563.355 174.96,564.189 173.5,565C 176.124,565.576 176.791,566.91 175.5,569C 177.454,571.145 178.621,573.312 179,575.5C 180.983,572.932 180.817,570.599 178.5,568.5C 178.417,566.264 178.75,563.93 179.5,561.5C 178.645,560.707 177.811,561.04 177,562.5C 175.813,560.956 175.48,559.289 176,557.5C 176.725,559.158 177.892,559.658 179.5,559C 177.467,556.694 175.8,554.694 174.5,553C 175.5,552.167 176.5,551.333 177.5,550.5C 175.089,548.681 174.922,546.681 177,544.5C 178.284,545.572 178.617,546.905 178,548.5C 179.793,545.905 181.293,543.238 182.5,540.5C 186.792,562.882 192.626,584.882 200,606.5C 201.8,608.317 203.966,609.484 206.5,610C 215.562,610.67 224.562,611.67 233.5,613C 234.667,614.167 235.833,615.333 237,616.5C 263.318,670.665 302.485,712.832 354.5,743C 357.257,743.584 359.923,743.25 362.5,742C 366.949,736.937 370.783,731.437 374,725.5C 375.293,721.418 374.126,718.251 370.5,716C 313.721,677.868 275.221,626.035 255,560.5C 233.4,474.17 249.066,395.503 302,324.5C 367.49,247.036 450.656,215.869 551.5,231C 552.416,230.626 553.25,230.126 554,229.5C 556.888,224.168 559.388,218.668 561.5,213C 560.846,211.013 559.513,209.68 557.5,209C 547.775,207.657 538.108,205.99 528.5,204C 522.971,193.755 518.804,182.921 516,171.5C 515.5,169.667 514.333,168.5 512.5,168C 494.167,167.333 475.833,167.333 457.5,168C 451.769,168.21 446.103,168.876 440.5,170C 438.376,171.122 436.543,172.622 435,174.5C 432.382,181.635 430.382,188.968 429,196.5C 428.235,199.196 427.068,201.696 425.5,204C 401.887,209.87 379.554,218.87 358.5,231C 355.983,231.257 353.65,230.59 351.5,229C 342.234,222.784 332.734,216.951 323,211.5C 317.409,214.594 312.242,218.261 307.5,222.5C 307.414,221.504 307.748,220.671 308.5,220C 308,219.833 307.5,219.667 307,219.5C 305.386,221.873 302.886,224.04 299.5,226C 297.888,226.72 296.388,226.554 295,225.5C 296.365,229.368 295.031,232.035 291,233.5C 290.654,231.152 289.487,229.319 287.5,228C 289.271,227.465 289.604,226.631 288.5,225.5C 287.155,226.347 286.155,227.513 285.5,229C 283.095,229.281 283.095,228.615 285.5,227C 285.167,226.667 284.833,226.333 284.5,226C 285.623,224.956 286.956,224.29 288.5,224C 287.167,223.333 285.833,222.667 284.5,222C 287.668,221.418 288.001,220.418 285.5,219C 287.108,218.342 288.275,218.842 289,220.5C 289.483,219.552 289.649,218.552 289.5,217.5C 284.78,217.775 284.446,216.941 288.5,215C 287.833,214.667 287.167,214.333 286.5,214C 287.833,213.667 289.167,213.333 290.5,213C 287.833,212.333 287.833,211.667 290.5,211C 289.675,209.312 288.675,209.145 287.5,210.5C 286.719,209.271 286.219,207.938 286,206.5C 285.333,207.833 284.667,209.167 284,210.5C 283.333,209.167 282.667,209.167 282,210.5C 281.849,207.881 281.015,205.547 279.5,203.5C 278.643,204.736 277.977,206.069 277.5,207.5C 276.167,208.833 274.833,208.833 273.5,207.5C 274.167,207.167 274.833,206.833 275.5,206.5C 274.271,205.719 272.938,205.219 271.5,205C 271.833,204.667 272.167,204.333 272.5,204C 269.536,203.16 269.203,202.16 271.5,201C 269.101,199.04 268.935,196.874 271,194.5C 273.148,195.977 274.482,197.977 275,200.5C 277.333,199.833 279.667,199.167 282,198.5C 280.273,197.033 278.773,195.033 277.5,192.5C 278.687,191.481 279.687,190.314 280.5,189C 279.833,188.667 279.167,188.333 278.5,188C 279.818,187.306 280.651,186.473 281,185.5C 282.882,186.093 283.882,187.427 284,189.5C 284.324,187.431 285.158,187.098 286.5,188.5C 287.251,187.624 287.751,186.624 288,185.5C 288.703,187.78 289.869,189.78 291.5,191.5C 290.738,191.911 289.738,192.077 288.5,192C 289.552,193.716 288.886,194.716 286.5,195C 288.813,195.662 291.146,196.162 293.5,196.5C 293.312,198.103 293.812,199.437 295,200.5C 295.251,198.567 295.751,196.734 296.5,195C 293.452,192.68 292.785,190.013 294.5,187C 293.692,186.692 293.025,186.192 292.5,185.5C 293.098,184.205 293.598,182.872 294,181.5C 295.444,183.155 297.278,183.822 299.5,183.5C 299.443,179.867 300.443,179.7 302.5,183C 303.5,183.667 304.5,183.667 305.5,183C 304.72,181.927 304.887,180.76 306,179.5C 308,180.833 310,182.167 312,183.5C 313.117,181.876 314.617,180.876 316.5,180.5C 319.731,181.063 322.731,181.063 325.5,180.5C 325.126,181.771 325.792,182.938 327.5,184C 327.167,185 326.833,186 326.5,187C 326.833,187.167 327.167,187.333 327.5,187.5C 328.683,183.598 329.683,183.764 330.5,188C 329.763,190.799 328.93,190.966 328,188.5C 326.354,190.055 326.021,191.721 327,193.5C 326.667,193.167 326.333,192.833 326,192.5C 322.524,196.401 323.524,199.068 329,200.5C 330.566,201.061 331.899,200.394 333,198.5C 333.308,199.308 333.808,199.975 334.5,200.5C 335.202,199.134 335.202,197.467 334.5,195.5C 332.983,196.911 331.649,196.744 330.5,195C 332.985,193.371 335.151,193.871 337,196.5C 338.117,195.051 338.784,193.384 339,191.5C 340.603,195.099 342.936,198.099 346,200.5C 347.011,199.663 348.178,199.33 349.5,199.5C 349.703,197.61 349.037,196.11 347.5,195C 347.229,191.738 348.729,189.238 352,187.5C 352.333,187.833 352.667,188.167 353,188.5C 353.18,190.488 353.014,192.488 352.5,194.5C 353.873,194.343 355.207,194.51 356.5,195C 357.833,195.667 357.833,196.333 356.5,197C 360.202,196.71 362.702,198.21 364,201.5C 364.368,200.09 365.201,199.09 366.5,198.5C 368.115,199.154 369.782,199.654 371.5,200C 370.366,201.016 370.699,201.683 372.5,202C 371.044,202.423 370.544,203.256 371,204.5C 371.333,204.167 371.667,203.833 372,203.5C 373.459,206.443 375.126,206.776 377,204.5C 378,204.833 379,205.167 380,205.5C 380.829,202.326 379.829,201.326 377,202.5C 376.626,201.584 376.126,200.75 375.5,200C 377.271,199.465 377.604,198.631 376.5,197.5C 375.522,197.977 374.689,198.643 374,199.5C 372.148,197.77 372.314,196.604 374.5,196C 373.39,193.866 372.39,191.7 371.5,189.5C 371.968,187.866 372.968,186.7 374.5,186C 373.685,184.057 372.685,182.057 371.5,180C 373.447,179.009 375.447,178.675 377.5,179C 372.964,184.219 374.297,185.886 381.5,184C 382.325,182.312 383.325,182.145 384.5,183.5C 386.776,182.787 389.109,182.287 391.5,182C 391.5,180.667 391.5,179.333 391.5,178C 392.449,177.383 393.282,177.549 394,178.5C 394.75,177.874 395.584,177.374 396.5,177C 396.167,176.667 395.833,176.333 395.5,176C 396.448,175.517 397.448,175.351 398.5,175.5C 398.78,178.388 397.447,179.888 394.5,180C 395.833,180.333 397.167,180.667 398.5,181C 397.549,181.718 397.383,182.551 398,183.5C 399.667,182.167 401.333,180.833 403,179.5C 403.5,180 404,180.5 404.5,181C 401.13,182.814 400.963,184.647 404,186.5C 407.668,183.127 407.168,179.794 402.5,176.5C 403.833,175.167 403.833,173.833 402.5,172.5C 402.833,172.167 403.167,171.833 403.5,171.5C 404.519,172.687 405.686,173.687 407,174.5C 407.667,173.167 408.333,171.833 409,170.5C 410.16,172.797 411.16,172.464 412,169.5C 412.308,170.308 412.808,170.975 413.5,171.5C 416.791,169.31 416.791,167.81 413.5,167C 415.167,165.667 416.833,164.333 418.5,163C 417.643,162.311 416.977,161.478 416.5,160.5C 417.891,160.891 418.891,160.058 419.5,158C 418.576,157.15 418.576,156.15 419.5,155C 419,153.5 418.5,152 418,150.5C 417.667,151.167 417.333,151.833 417,152.5C 416.561,149.701 415.228,148.701 413,149.5C 413.135,147.575 413.302,145.575 413.5,143.5C 418.017,144.341 421.683,143.008 424.5,139.5C 425.711,140.274 425.711,141.107 424.5,142C 427.856,144.256 431.523,145.756 435.5,146.5C 435.354,144.058 436.187,143.391 438,144.5C 440.282,142.634 441.115,140.468 440.5,138C 442.224,137.552 442.891,136.718 442.5,135.5C 445.366,135.554 448.199,135.554 451,135.5C 452.862,137.361 452.362,138.694 449.5,139.5C 450.518,140.852 451.851,141.852 453.5,142.5C 451.252,143.324 451.086,144.324 453,145.5C 454.585,144.624 455.585,143.291 456,141.5C 458.139,142.769 460.305,142.769 462.5,141.5C 461.814,139.936 461.981,138.269 463,136.5C 464.049,137.517 465.216,137.684 466.5,137C 465.833,136.667 465.167,136.333 464.5,136C 467.022,134.314 466.689,132.981 463.5,132C 465.663,130.52 467.663,130.52 469.5,132C 468.643,132.689 467.977,133.522 467.5,134.5C 469.274,135.187 470.941,136.02 472.5,137C 471.318,138.678 470.152,138.512 469,136.5C 468.5,136.667 468,136.833 467.5,137C 470.167,138.333 470.167,139.667 467.5,141C 469.23,142.852 470.396,142.686 471,140.5C 471.451,142.929 472.285,143.096 473.5,141C 473.167,140.667 472.833,140.333 472.5,140C 473.951,140.263 475.284,140.096 476.5,139.5C 477.55,137.898 476.883,137.065 474.5,137C 475,136.5 475.5,136 476,135.5C 479.809,136.446 483.475,136.446 487,135.5C 488.453,138.286 488.286,141.12 486.5,144C 487,144.167 487.5,144.333 488,144.5C 489.679,144.28 491.179,143.78 492.5,143C 490.956,142.71 489.623,142.044 488.5,141C 491.483,139.92 492.817,138.087 492.5,135.5C 493.251,136.376 493.751,137.376 494,138.5C 496.316,137.633 498.316,138.299 500,140.5C 501.808,140.112 503.475,140.112 505,140.5C 506.441,141.87 508.108,142.87 510,143.5C 511.064,141.307 512.398,139.307 514,137.5C 515.378,139.854 516.878,139.854 518.5,137.5C 520.814,138.123 520.481,138.456 517.5,138.5C 517.579,139.93 517.246,141.264 516.5,142.5C 518.108,143.242 519.775,143.409 521.5,143C 523.219,144.87 524.219,147.037 524.5,149.5C 526.857,149.337 529.19,149.503 531.5,150C 529.998,150.583 528.665,151.416 527.5,152.5C 528.919,154.336 530.086,156.336 531,158.5C 531.974,156.122 532.641,156.456 533,159.5C 533.604,157.314 534.77,157.148 536.5,159C 535.366,160.016 535.699,160.683 537.5,161C 536.483,162.049 536.316,163.216 537,164.5C 537.556,162.405 538.056,162.238 538.5,164C 537.467,167.03 538.467,169.364 541.5,171C 537.907,171.684 537.573,173.184 540.5,175.5C 541.7,173.235 543.367,171.402 545.5,170C 545.167,169.667 544.833,169.333 544.5,169C 545.787,167.59 546.954,166.09 548,164.5C 549.284,165.572 549.617,166.905 549,168.5C 552.126,167.715 555.292,167.549 558.5,168C 556.881,169.923 555.048,170.423 553,169.5C 552.493,170.996 552.993,172.163 554.5,173C 552.824,175.673 551.158,178.339 549.5,181C 550.345,182.558 549.679,183.558 547.5,184C 547.833,184.333 548.167,184.667 548.5,185C 546.744,185.202 545.078,185.702 543.5,186.5C 543.833,187.5 544.5,188.167 545.5,188.5C 546.72,187.289 547.887,187.289 549,188.5C 550.585,187.624 551.585,186.291 552,184.5C 553.453,187.286 553.286,190.12 551.5,193C 552,193.5 552.5,194 553,194.5C 553.827,193.338 554.66,192.171 555.5,191C 555.355,190.228 555.022,189.561 554.5,189C 555.931,188.535 557.097,187.701 558,186.5C 559.284,187.572 559.617,188.905 559,190.5C 560.158,190.998 560.991,191.831 561.5,193C 558.837,195.357 559.004,197.523 562,199.5C 562.617,198.551 562.451,197.718 561.5,197C 563.074,196.301 564.407,196.635 565.5,198C 564.833,198.333 564.167,198.667 563.5,199C 564.329,200.816 565.163,202.649 566,204.5C 567.729,202.069 569.229,202.403 570.5,205.5C 569.738,205.911 568.738,206.077 567.5,206C 568.211,207.255 569.044,208.421 570,209.5C 570.333,208.833 570.667,208.167 571,207.5C 571.85,208.424 572.85,208.424 574,207.5C 575.826,208.01 575.993,208.844 574.5,210C 575.5,210.5 576.5,211 577.5,211.5C 578.141,213.296 579.141,214.796 580.5,216C 579.869,217.768 580.702,218.935 583,219.5C 585.918,218.506 586.084,219.006 583.5,221C 584.328,221.915 585.328,222.581 586.5,223C 584.82,223.034 583.32,223.201 582,223.5C 581.431,220.597 579.765,218.597 577,217.5C 576.383,218.449 576.549,219.282 577.5,220C 574.999,221.418 575.332,222.418 578.5,223C 576.314,224.309 574.147,224.476 572,223.5C 571.436,225.562 571.936,227.395 573.5,229C 573.354,230.727 572.687,230.894 571.5,229.5C 570.479,230.002 570.312,230.668 571,231.5C 572,231.833 573,232.167 574,232.5C 574.333,231.833 574.667,231.167 575,230.5C 576.101,232.394 577.434,233.061 579,232.5C 579.617,233.449 579.451,234.282 578.5,235C 580.107,236.049 580.773,237.549 580.5,239.5C 583.342,238.568 586.176,238.902 589,240.5C 589.29,238.956 589.956,237.623 591,236.5C 591.833,238 593,239.167 594.5,240C 594.167,240.333 593.833,240.667 593.5,241C 594.5,241.333 595.5,241.667 596.5,242C 595.289,243.113 595.289,244.28 596.5,245.5C 591.166,248.501 591.332,251.168 597,253.5C 597.691,251.109 598.691,251.109 600,253.5C 600.333,252.833 600.667,252.167 601,251.5C 602.5,252.333 603.667,253.5 604.5,255C 606.279,254.021 607.945,254.354 609.5,256C 606.833,257 606.833,258 609.5,259C 608.051,260.117 606.384,260.784 604.5,261C 607.234,263.634 609.067,266.8 610,270.5C 612.333,269.167 614.667,267.833 617,266.5C 617.192,264.423 617.692,262.423 618.5,260.5C 619.167,260.833 619.833,261.167 620.5,261.5C 621.747,259.994 621.747,258.494 620.5,257C 621.917,254.174 623.417,254.007 625,256.5C 625.605,254.519 626.605,254.185 628,255.5C 627.737,254.049 627.904,252.716 628.5,251.5C 633.419,253.881 638.419,255.048 643.5,255C 642.271,256.529 640.771,257.696 639,258.5C 638.289,260.367 638.789,261.867 640.5,263C 639.044,263.423 638.544,264.256 639,265.5C 640.441,264.74 641.941,264.074 643.5,263.5C 644.506,263.938 644.506,264.604 643.5,265.5C 644.723,266.614 646.056,266.781 647.5,266C 646.833,263.667 646.167,261.333 645.5,259C 647.676,258.837 649.509,258.004 651,256.5C 652.044,258.715 652.71,261.048 653,263.5C 655.133,262.582 657.3,262.416 659.5,263C 658.216,261.703 658.383,260.536 660,259.5C 660.423,260.956 661.256,261.456 662.5,261C 660.85,258.187 658.85,255.687 656.5,253.5C 655.894,251.291 655.227,249.124 654.5,247C 656.101,246.727 657.601,246.227 659,245.5C 660.398,246.051 661.732,246.384 663,246.5C 663.5,246 664,245.5 664.5,245C 662.913,244.138 661.246,243.471 659.5,243C 660.696,242.346 660.696,241.846 659.5,241.5C 658.459,243.991 657.626,243.991 657,241.5C 656.612,242.428 655.945,243.095 655,243.5C 653.322,241.486 651.822,239.319 650.5,237C 652.138,235.201 653.971,234.035 656,233.5C 656.711,231.633 656.211,230.133 654.5,229C 657.265,228.875 658.932,228.042 659.5,226.5C 662.063,226.737 662.063,227.237 659.5,228C 662.244,228.628 664.244,227.628 665.5,225C 664.833,224.667 664.167,224.333 663.5,224C 664.167,221.667 664.833,219.333 665.5,217C 667.457,218.286 669.79,219.119 672.5,219.5C 672.351,220.552 672.517,221.552 673,222.5C 674.61,222.87 676.11,222.203 677.5,220.5C 678.308,220.808 678.975,221.308 679.5,222C 678.13,223.441 677.13,225.108 676.5,227C 678.754,227.624 680.421,228.957 681.5,231C 679.117,231.065 678.45,231.898 679.5,233.5C 678.624,234.251 677.624,234.751 676.5,235C 677.76,236.113 678.927,236.28 680,235.5C 680.7,237.032 681.866,238.032 683.5,238.5C 686.552,237.689 689.385,237.689 692,238.5C 694.217,234.556 695.717,234.723 696.5,239C 698.127,238.57 699.627,238.404 701,238.5C 701.837,240.007 703.004,240.507 704.5,240C 703.833,238.667 702.833,237.667 701.5,237C 703.709,235.309 705.542,235.476 707,237.5C 708.085,236.707 709.252,236.04 710.5,235.5C 712.23,237.793 713.563,240.293 714.5,243C 712.329,244.174 711.329,246.007 711.5,248.5C 709.097,248.607 707.264,247.607 706,245.5C 705.934,248.276 704.768,250.442 702.5,252C 704.982,253.311 707.315,253.478 709.5,252.5C 709.669,253.397 710.002,254.397 710.5,255.5C 711.833,254.167 713.167,254.167 714.5,255.5C 716.386,256.85 717.886,258.517 719,260.5C 720.243,259.664 721.41,259.997 722.5,261.5C 721.674,262.451 721.508,263.451 722,264.5C 723.574,263.016 724.907,261.349 726,259.5C 726.5,261.333 727.667,262.5 729.5,263C 726.838,265.743 725.671,268.576 726,271.5C 728.596,270.462 731.429,269.128 734.5,267.5C 736.135,268.046 737.801,268.38 739.5,268.5C 739.67,267.178 739.337,266.011 738.5,265C 736.576,264.821 734.909,264.654 733.5,264.5C 736.167,263.167 738.833,263.167 741.5,264.5C 739.98,267.155 740.48,267.822 743,266.5C 744.011,266.892 744.511,267.559 744.5,268.5C 747.86,268.377 750.86,267.877 753.5,267C 752.663,268.011 752.33,269.178 752.5,270.5C 753.675,270.281 754.675,270.614 755.5,271.5C 754.418,271.749 753.085,271.915 751.5,272C 752.602,274.863 753.602,277.696 754.5,280.5C 754.471,282.029 753.804,283.196 752.5,284C 753.167,284.333 753.833,284.667 754.5,285C 753.167,286 753.167,287 754.5,288C 753.285,290.096 752.451,289.929 752,287.5C 751.667,287.833 751.333,288.167 751,288.5C 749.253,287.67 747.587,286.67 746,285.5C 744.989,285.892 744.489,286.559 744.5,287.5C 743.251,285.525 741.751,285.191 740,286.5C 739.667,285.833 739.333,285.167 739,284.5C 738.552,286.224 737.718,286.891 736.5,286.5C 737.025,287.192 737.692,287.692 738.5,288C 737.692,288.308 737.025,288.808 736.5,289.5C 737.85,291.386 739.517,292.886 741.5,294C 741.043,294.414 740.709,294.914 740.5,295.5C 742.406,297.892 743.239,300.559 743,303.5C 742.167,302.667 741.333,301.833 740.5,301C 741.731,299.817 741.731,298.651 740.5,297.5C 739.268,296.855 737.935,296.689 736.5,297C 738.657,295.915 738.824,294.749 737,293.5C 736.577,294.956 735.744,295.456 734.5,295C 733.167,293.667 731.833,292.333 730.5,291C 731.167,290.667 731.833,290.333 732.5,290C 728.978,288.374 725.811,286.207 723,283.5C 722.601,283.728 722.435,284.062 722.5,284.5 Z"/></g>
<g><path style="opacity:1" fill="#eff0ed" d="M 598.5,521.5 C 614.1,520.027 620.6,527.027 618,542.5C 612.283,552.626 604.116,555.126 593.5,550C 584.549,538.637 586.216,529.137 598.5,521.5 Z"/></g>
<g><path style="opacity:1" fill="#f1f1ee" d="M 722.5,284.5 C 729.528,291.86 736.528,299.193 743.5,306.5C 779.605,347.055 802.105,394.388 811,448.5C 819.994,452.388 829.16,455.888 838.5,459C 839.333,459.833 840.167,460.667 841,461.5C 841.198,483.596 839.864,505.596 837,527.5C 836.167,529.667 834.667,531.167 832.5,532C 826.195,533.44 819.862,534.773 813.5,536C 811.152,536.346 809.319,537.513 808,539.5C 802.736,570.398 793.236,599.898 779.5,628C 784.192,637.354 789.692,646.188 796,654.5C 796.706,656.971 796.373,659.305 795,661.5C 781.878,678.291 768.378,694.791 754.5,711C 751.97,712.422 749.303,712.755 746.5,712C 740.5,709.333 734.5,706.667 728.5,704C 726.5,703.333 724.5,703.333 722.5,704C 703.878,721.963 683.545,737.63 661.5,751C 660.299,751.903 659.465,753.069 659,754.5C 658.883,764.837 658.883,775.17 659,785.5C 657.482,787.348 655.649,788.848 653.5,790C 637.14,797.014 620.473,803.181 603.5,808.5C 601.701,808.423 600.034,807.923 598.5,807C 592.198,799.697 585.532,792.697 578.5,786C 571.741,785.71 565.241,786.876 559,789.5C 555.601,798.363 552.601,807.363 550,816.5C 548.833,819 547,820.833 544.5,822C 525.872,823.586 507.205,823.919 488.5,823C 484.841,823.037 481.674,821.871 479,819.5C 475.851,809.254 473.017,798.921 470.5,788.5C 464.329,784.786 457.662,782.286 450.5,781C 445.962,779.336 444.462,776.169 446,771.5C 449.123,765.418 452.623,759.585 456.5,754C 457.729,753.219 459.062,752.719 460.5,752.5C 533.058,767.821 600.392,755.321 662.5,715C 750.99,651.834 791.49,565.668 784,456.5C 774.001,373.275 734.501,308.442 665.5,262C 663.643,260.818 662.643,259.151 662.5,257C 663.38,250.389 667.047,248.056 673.5,250C 690.839,260.189 707.173,271.689 722.5,284.5 Z"/></g>
<g><path style="opacity:1" fill="#fdfdfc" d="M 657.5,548.5 C 655.67,501.177 654.837,453.511 655,405.5C 653.667,404.833 652.333,404.167 651,403.5C 644.59,404.478 638.09,404.811 631.5,404.5C 631.5,452.5 631.5,500.5 631.5,548.5C 639.174,548.334 646.841,548.5 654.5,549C 655.056,549.383 655.389,549.883 655.5,550.5C 646.915,550.817 638.415,550.483 630,549.5C 629.333,500.833 629.333,452.167 630,403.5C 639,402.167 648,402.167 657,403.5C 657.5,451.832 657.667,500.166 657.5,548.5 Z"/></g>
<g><path style="opacity:1" fill="#fcfcfc" d="M 443.5,402.5 C 443.209,403.649 442.376,404.316 441,404.5C 425.858,403.539 410.692,403.206 395.5,403.5C 395.5,452.167 395.5,500.833 395.5,549.5C 403.347,549.581 411.014,549.581 418.5,549.5C 419.603,532.452 419.603,515.619 418.5,499C 419,498.5 419.5,498 420,497.5C 420.169,513.339 420.669,529.005 421.5,544.5C 421.682,546.591 421.348,548.591 420.5,550.5C 411.607,551.816 402.774,551.816 394,550.5C 393.5,501.168 393.333,451.834 393.5,402.5C 410.167,402.5 426.833,402.5 443.5,402.5 Z"/></g>
<g><path style="opacity:1" fill="#f0f0ee" d="M 443.5,402.5 C 464.476,405.31 476.309,417.31 479,438.5C 481.865,454.182 478.865,468.516 470,481.5C 466.282,485.273 462.116,488.44 457.5,491C 461.237,497.866 464.404,505.032 467,512.5C 471.884,525.317 476.051,538.317 479.5,551.5C 470.827,551.666 462.16,551.5 453.5,551C 446.543,533.3 439.877,515.466 433.5,497.5C 429.555,496.509 425.555,496.176 421.5,496.5C 421.5,512.5 421.5,528.5 421.5,544.5C 420.669,529.005 420.169,513.339 420,497.5C 419.5,498 419,498.5 418.5,499C 419.603,515.619 419.603,532.452 418.5,549.5C 411.014,549.581 403.347,549.581 395.5,549.5C 395.5,500.833 395.5,452.167 395.5,403.5C 410.692,403.206 425.858,403.539 441,404.5C 442.376,404.316 443.209,403.649 443.5,402.5 Z"/></g>
<g><path style="opacity:1" fill="#0f0f0c" d="M 420.5,427.5 C 425.844,427.334 431.177,427.501 436.5,428C 447.36,431.111 452.026,438.444 450.5,450C 452.027,462.456 446.694,469.79 434.5,472C 429.845,472.499 425.179,472.666 420.5,472.5C 420.5,457.5 420.5,442.5 420.5,427.5 Z"/></g>
<g><path style="opacity:1" fill="#f1f1ee" d="M 657.5,548.5 C 657.167,549.5 656.5,550.167 655.5,550.5C 655.389,549.883 655.056,549.383 654.5,549C 646.841,548.5 639.174,548.334 631.5,548.5C 631.5,500.5 631.5,452.5 631.5,404.5C 638.09,404.811 644.59,404.478 651,403.5C 652.333,404.167 653.667,404.833 655,405.5C 654.837,453.511 655.67,501.177 657.5,548.5 Z"/></g>
<g><path style="opacity:1" fill="#f0f0ee" d="M 698.5,402.5 C 708.839,402.334 719.172,402.5 729.5,403C 741.648,452.243 752.648,501.576 762.5,551C 754.167,551.667 745.833,551.667 737.5,551C 734.345,541.399 732.012,531.565 730.5,521.5C 719.5,521.5 708.5,521.5 697.5,521.5C 695.884,530.912 693.884,540.246 691.5,549.5C 682.859,550.498 674.192,550.831 665.5,550.5C 675.229,500.851 686.229,451.517 698.5,402.5 Z"/></g>
<g><path style="opacity:1" fill="#0c0c09" d="M 713.5,441.5 C 717.657,459.281 721.323,477.281 724.5,495.5C 717.5,495.5 710.5,495.5 703.5,495.5C 706.705,477.475 710.038,459.475 713.5,441.5 Z"/></g>
<g><path style="opacity:1" fill="#f0f1ee" d="M 496.5,402.5 C 515.547,402.065 534.547,402.565 553.5,404C 563.503,406.67 570.336,412.837 574,422.5C 579.167,436.49 578.5,450.156 572,463.5C 568.548,467.791 564.381,471.125 559.5,473.5C 572.483,478.78 579.65,488.446 581,502.5C 584.42,530.522 572.253,546.689 544.5,551C 528.259,551.824 512.093,551.658 496,550.5C 495.172,501.096 495.339,451.763 496.5,402.5 Z"/></g>
<g><path style="opacity:1" fill="#10100e" d="M 522.5,487.5 C 527.844,487.334 533.177,487.501 538.5,488C 549.684,490.171 554.684,497.005 553.5,508.5C 554.208,519.293 549.208,525.459 538.5,527C 533.177,527.499 527.844,527.666 522.5,527.5C 522.5,514.167 522.5,500.833 522.5,487.5 Z"/></g>
<g><path style="opacity:1" fill="#0f0f0c" d="M 522.5,426.5 C 545.339,423.507 553.839,433.174 548,455.5C 545.876,459.313 542.709,461.813 538.5,463C 533.233,464.191 527.899,464.691 522.5,464.5C 522.5,451.833 522.5,439.167 522.5,426.5 Z"/></g>
<g><path style="opacity:1" fill="#f0f1ee" d="M 320.5,399.5 C 355.384,395.881 374.551,411.547 378,446.5C 379.444,463.811 379.777,481.145 379,498.5C 379.033,516.582 372.867,532.082 360.5,545C 340.5,557.667 320.5,557.667 300.5,545C 289.405,532.735 283.572,518.235 283,501.5C 280.789,481.785 281.123,462.118 284,442.5C 286.47,428.39 292.97,416.556 303.5,407C 308.782,403.353 314.448,400.853 320.5,399.5 Z"/></g>
<g><path style="opacity:1" fill="#0c0c09" d="M 326.5,424.5 C 338.542,423.426 345.708,428.759 348,440.5C 350.432,459.755 351.099,479.088 350,498.5C 349.645,504.608 348.645,510.608 347,516.5C 340.903,528.975 331.737,531.809 319.5,525C 314.623,518.337 312.123,510.837 312,502.5C 309.844,481.741 310.51,461.074 314,440.5C 315.778,433.231 319.944,427.897 326.5,424.5 Z"/></g>
</svg>
